<svg xmlns="http://www.w3.org/2000/svg" width="40" height="40" fill="none" viewBox="0 0 40 40"><path fill="#001A23" d="M0 0V40H40V0H0ZM24.2233 32.65C23.5467 32.78 23.3333 32.365 23.3333 32.01V28.3517C23.3333 27.1067 22.8967 26.2967 22.4167 25.8833C25.3867 25.5533 28.5067 24.425 28.5067 19.305C28.5067 17.8483 27.9883 16.6583 27.1333 15.7267C27.2717 15.39 27.7283 14.0333 27.0017 12.1983C27.0017 12.1983 25.8833 11.84 23.3383 13.565C22.2733 13.265 21.1333 13.12 20 13.1133C18.8667 13.1183 17.7267 13.265 16.6617 13.5617C14.115 11.8367 12.995 12.195 12.995 12.195C12.2717 14.0317 12.7283 15.3867 12.8667 15.725C12.0133 16.6583 11.4933 17.8467 11.4933 19.3033C11.4933 24.41 14.605 25.555 17.5683 25.8933C17.1867 26.2267 16.8417 26.8133 16.7217 27.6767C15.96 28.0167 14.0317 28.605 12.8417 26.5667C12.8417 26.5667 12.1367 25.2867 10.7967 25.1917C10.7967 25.1917 9.49667 25.175 10.705 26.0033C10.705 26.0033 11.58 26.4133 12.1867 27.9533C12.1867 27.9533 12.9583 30.3333 16.6667 29.5267V32.0083C16.6667 32.36 16.4517 32.7733 15.7867 32.65C10.4867 30.8883 6.66667 25.89 6.66667 20C6.66667 12.635 12.6367 6.66667 20 6.66667C27.3633 6.66667 33.3333 12.635 33.3333 20C33.3333 25.8883 29.5183 30.885 24.2233 32.65Z"/></svg>