<svg width="40" height="40" viewBox="0 0 40 40" fill="none" xmlns="http://www.w3.org/2000/svg">
<path d="M0 0V40H40V0H0ZM13.3333 31.6667H8.33333V13.3333H13.3333V31.6667ZM10.8333 11.22C9.22333 11.22 7.91667 9.90333 7.91667 8.28C7.91667 6.65667 9.22333 5.34 10.8333 5.34C12.4433 5.34 13.75 6.65667 13.75 8.28C13.75 9.90333 12.445 11.22 10.8333 11.22ZM33.3333 31.6667H28.3333V22.3267C28.3333 16.7133 21.6667 17.1383 21.6667 22.3267V31.6667H16.6667V13.3333H21.6667V16.275C23.995 11.965 33.3333 11.6467 33.3333 20.4017V31.6667Z" fill="#001A23"/>
</svg>
