<svg width="40" height="40" viewBox="0 0 40 40" fill="none" xmlns="http://www.w3.org/2000/svg">
<rect width="40" height="40" fill="#001A23"/>
<path d="M12.108 29.322C9.51667 29.322 7.53867 28.6013 6.174 27.16C4.82467 25.7187 4.15 23.6717 4.15 21.019C4.15 19.7003 4.357 18.5273 4.771 17.5C5.185 16.4573 5.75233 15.5833 6.473 14.878C7.19367 14.1573 8.05233 13.613 9.049 13.245C10.0457 12.877 11.1267 12.693 12.292 12.693C12.9667 12.693 13.58 12.7467 14.132 12.854C14.684 12.946 15.167 13.061 15.581 13.199C15.995 13.3217 16.34 13.452 16.616 13.59C16.892 13.728 17.0913 13.8353 17.214 13.912L16.179 16.81C15.6883 16.5493 15.1133 16.327 14.454 16.143C13.81 15.959 13.074 15.867 12.246 15.867C11.694 15.867 11.1497 15.959 10.613 16.143C10.0917 16.327 9.624 16.626 9.21 17.04C8.81133 17.4387 8.48933 17.96 8.244 18.604C7.99867 19.248 7.876 20.03 7.876 20.95C7.876 21.686 7.95267 22.376 8.106 23.02C8.27467 23.6487 8.53533 24.193 8.888 24.653C9.256 25.113 9.73133 25.481 10.314 25.757C10.8967 26.0177 11.602 26.148 12.43 26.148C12.9513 26.148 13.419 26.1173 13.833 26.056C14.247 25.9947 14.615 25.9257 14.937 25.849C15.259 25.757 15.5427 25.6573 15.788 25.55C16.0333 25.4427 16.2557 25.343 16.455 25.251L17.444 28.126C16.938 28.4327 16.225 28.7087 15.305 28.954C14.385 29.1993 13.3193 29.322 12.108 29.322ZM24.9413 29C24.3126 27.666 23.6916 26.2783 23.0783 24.837C22.4649 23.3957 21.8823 21.9697 21.3303 20.559C20.7783 19.1483 20.2646 17.799 19.7893 16.511C19.3293 15.223 18.9306 14.073 18.5933 13.061H22.5493C22.8559 13.981 23.1856 14.9777 23.5383 16.051C23.9063 17.109 24.2743 18.167 24.6423 19.225C25.0256 20.283 25.3936 21.295 25.7463 22.261C26.0989 23.227 26.4286 24.0627 26.7353 24.768C27.0266 24.0627 27.3486 23.227 27.7013 22.261C28.0693 21.295 28.4373 20.283 28.8053 19.225C29.1886 18.167 29.5566 17.109 29.9093 16.051C30.2773 14.9777 30.6146 13.981 30.9213 13.061H34.7393C34.3866 14.073 33.9803 15.223 33.5203 16.511C33.0603 17.799 32.5543 19.1483 32.0023 20.559C31.4503 21.9697 30.8676 23.3957 30.2543 24.837C29.6409 26.2783 29.0199 27.666 28.3913 29H24.9413Z" fill="white"/>
</svg>
