<svg width="30" height="30" viewBox="0 0 30 30" fill="none" xmlns="http://www.w3.org/2000/svg">
<path d="M30 5.69813C28.8844 6.1875 27.6956 6.51187 26.4563 6.66937C27.7313 5.90813 28.7044 4.71187 29.1619 3.27C27.9731 3.97874 26.6606 4.47937 25.2619 4.75876C24.1331 3.55687 22.5244 2.8125 20.7694 2.8125C17.3644 2.8125 14.6231 5.57626 14.6231 8.96437C14.6231 9.45187 14.6644 9.92063 14.7656 10.3669C9.6525 10.1175 5.12813 7.66687 2.08874 3.93376C1.55813 4.85437 1.24687 5.90813 1.24687 7.0425C1.24687 9.1725 2.34374 11.0606 3.97874 12.1537C2.99063 12.135 2.02124 11.8481 1.2 11.3963C1.2 11.415 1.2 11.4394 1.2 11.4637C1.2 14.4524 3.33187 16.935 6.1275 17.5069C5.62687 17.6437 5.08126 17.7094 4.515 17.7094C4.12126 17.7094 3.72374 17.6869 3.35063 17.6044C4.1475 20.04 6.40876 21.8306 9.0975 21.8887C7.005 23.5256 4.34813 24.5119 1.47187 24.5119C0.9675 24.5119 0.48375 24.4894 0 24.4276C2.72437 26.1844 5.95313 27.1874 9.435 27.1874C20.7524 27.1874 26.94 17.8126 26.94 9.68624C26.94 9.41437 26.9306 9.15187 26.9174 8.89126C28.1381 8.025 29.1637 6.94313 30 5.69813Z" fill="white"/>
</svg>
